<?xml version="1.0" encoding="UTF-8" standalone="no"?>
<!-- Generator: Adobe Illustrator 19.0.0, SVG Export Plug-In . SVG Version: 6.00 Build 0)  -->

<svg
   xmlns:dc="http://purl.org/dc/elements/1.1/"
   xmlns:cc="http://creativecommons.org/ns#"
   xmlns:rdf="http://www.w3.org/1999/02/22-rdf-syntax-ns#"
   xmlns:svg="http://www.w3.org/2000/svg"
   xmlns="http://www.w3.org/2000/svg"
   xmlns:sodipodi="http://sodipodi.sourceforge.net/DTD/sodipodi-0.dtd"
   xmlns:inkscape="http://www.inkscape.org/namespaces/inkscape"
   version="1.1"
   id="Layer_1"
   x="0px"
   y="0px"
   viewBox="0 0 163.84 163.84"
   xml:space="preserve"
   sodipodi:docname="peoplex.svg"
   width="163.84"
   height="163.84"
   inkscape:version="0.92.1 r15371"><metadata
   id="metadata81"><rdf:RDF><cc:Work
       rdf:about=""><dc:format>image/svg+xml</dc:format><dc:type
         rdf:resource="http://purl.org/dc/dcmitype/StillImage" /><dc:title></dc:title></cc:Work></rdf:RDF></metadata><defs
   id="defs79" /><sodipodi:namedview
   pagecolor="#ffffff"
   bordercolor="#666666"
   borderopacity="1"
   objecttolerance="10"
   gridtolerance="10"
   guidetolerance="10"
   inkscape:pageopacity="0"
   inkscape:pageshadow="2"
   inkscape:window-width="1536"
   inkscape:window-height="801"
   id="namedview77"
   showgrid="false"
   inkscape:zoom="1.84375"
   inkscape:cx="70.218333"
   inkscape:cy="72.24317"
   inkscape:window-x="1528"
   inkscape:window-y="207"
   inkscape:window-maximized="1"
   inkscape:current-layer="Layer_1" />
<circle
   style="fill:#366796;stroke-width:0.31999999"
   cx="81.919998"
   cy="81.919998"
   r="81.919998"
   id="circle2" />
<path
   style="fill:#263a7a;stroke-width:0.31999999"
   d="m 163.84,81.919998 c 0,-3.26464 -0.1968,-6.48288 -0.56832,-9.64832 l -24.67968,-25.48512 -31.25152,0.0349 -9.897282,21.0896 -13.40832,-13.84928 -30.41792,-0.55168 -3.38208,19.8736 48.25216,48.314562 -1.48672,1.44416 -36.85888,-36.858882 -29.6368,28.798402 48.70848,48.70848 c 0.8992,0.0291 1.80064,0.049 2.70688,0.049 C 127.16288,163.84 163.84,127.16288 163.84,81.919998 Z"
   id="path4"
   inkscape:connector-curvature="0" />
<path
   style="fill:#71e2ef;stroke-width:0.31999999"
   d="m 94.207038,28.991998 h -49.39808 c -2.35456,0 -4.26272,1.9088 -4.26272,4.26272 v 24.57376 c 0,2.35456 1.9088,4.26272 4.26272,4.26272 h 4.01216 v 9.34432 c 0,1.82592 2.20768,2.74048 3.49856,1.44928 l 10.79424,-10.79424 h 31.09312 c 2.35456,0 4.26272,-1.9088 4.26272,-4.26272 v -24.57344 c -3.2e-4,-2.35424 -1.90912,-4.2624 -4.26272,-4.2624 z"
   id="path6"
   inkscape:connector-curvature="0" />
<path
   style="fill:#38c6d9;stroke-width:0.31999999"
   d="m 94.207038,28.991998 h -24.60704 v 33.09888 h 24.60704 c 2.35456,0 4.26272,-1.9088 4.26272,-4.26272 v -24.57376 c -3.2e-4,-2.35424 -1.90912,-4.2624 -4.26272,-4.2624 z"
   id="path8"
   inkscape:connector-curvature="0" />
<g
   id="g14"
   transform="matrix(0.32,0,0,0.32,-1.8310547e-6,-1.8310546e-6)">
	<rect
   x="152.56599"
   y="121.518"
   style="fill:#366695"
   width="129.293"
   height="9.4040003"
   id="rect10" />
	<rect
   x="152.56599"
   y="147.377"
   style="fill:#366695"
   width="129.293"
   height="9.4040003"
   id="rect12" />
</g>
<path
   style="fill:#fee187;stroke-width:0.31999999"
   d="M 86.182718,45.541438 H 135.5808 c 2.35456,0 4.26272,1.9088 4.26272,4.26272 v 24.57376 c 0,2.35456 -1.9088,4.26272 -4.26272,4.26272 h -4.01216 v 9.34432 c 0,1.82592 -2.20768,2.74048 -3.49856,1.44928 L 117.27584,78.639998 H 86.182718 c -2.35456,0 -4.26272,-1.9088 -4.26272,-4.26272 v -24.57312 c 0,-2.35456 1.9088,-4.26272 4.26272,-4.26272 z"
   id="path16"
   inkscape:connector-curvature="0" />
<path
   style="fill:#ffc61b;stroke-width:0.31999999"
   d="M 135.58048,45.541438 H 107.112 v 33.09888 h 10.16352 l 10.79424,10.79424 c 1.29152,1.29088 3.49856,0.37664 3.49856,-1.44928 v -9.34432 h 4.01216 c 2.35456,0 4.26272,-1.9088 4.26272,-4.26272 v -24.5744 c 0,-2.35424 -1.9088,-4.2624 -4.26272,-4.2624 z"
   id="path18"
   inkscape:connector-curvature="0" />
<circle
   style="fill:#ffedb5;stroke-width:0.31999999"
   cx="44.683517"
   cy="100.02528"
   r="20.686722"
   id="circle20" />
<g
   id="g28"
   transform="matrix(0.32,0,0,0.32,-1.8310547e-6,-1.8310546e-6)">
	<circle
   style="fill:#386895"
   cx="113.192"
   cy="304.09698"
   r="5.8769999"
   id="circle22" />
	<circle
   style="fill:#386895"
   cx="167.54601"
   cy="304.09698"
   r="5.8769999"
   id="circle24" />
	<path
   style="fill:#386895"
   d="m 122.158,339.111 c 4.13,5.077 10.423,8.326 17.479,8.326 7.056,0 13.348,-3.248 17.479,-8.326 z"
   id="path26"
   inkscape:connector-curvature="0" />
</g>
<circle
   style="fill:#ffedb5;stroke-width:0.31999999"
   cx="110.88161"
   cy="110.72704"
   r="20.686722"
   id="circle30" />
<g
   id="g38"
   transform="matrix(0.32,0,0,0.32,-1.8310547e-6,-1.8310546e-6)">
	<circle
   style="fill:#386895"
   cx="320.06"
   cy="329.85199"
   r="5.8769999"
   id="circle32" />
	<circle
   style="fill:#386895"
   cx="374.41501"
   cy="329.85199"
   r="5.8769999"
   id="circle34" />
	<path
   style="fill:#386895"
   d="m 369.033,365.116 c 0,12.441 -10.087,22.528 -22.528,22.528 -12.441,0 -22.528,-10.087 -22.528,-22.528 z"
   id="path36"
   inkscape:connector-curvature="0" />
</g>
<g
   id="g44"
   transform="matrix(0.32,0,0,0.32,-1.8310547e-6,-1.8310546e-6)">
	<rect
   x="281.85901"
   y="173.235"
   style="fill:#366695"
   width="129.293"
   height="9.4040003"
   id="rect40" />
	<rect
   x="281.85901"
   y="199.09399"
   style="fill:#366695"
   width="129.293"
   height="9.4040003"
   id="rect42" />
</g>
<g
   id="g46"
   transform="translate(-174.08,-174.08)">
</g>
<g
   id="g48"
   transform="translate(-174.08,-174.08)">
</g>
<g
   id="g50"
   transform="translate(-174.08,-174.08)">
</g>
<g
   id="g52"
   transform="translate(-174.08,-174.08)">
</g>
<g
   id="g54"
   transform="translate(-174.08,-174.08)">
</g>
<g
   id="g56"
   transform="translate(-174.08,-174.08)">
</g>
<g
   id="g58"
   transform="translate(-174.08,-174.08)">
</g>
<g
   id="g60"
   transform="translate(-174.08,-174.08)">
</g>
<g
   id="g62"
   transform="translate(-174.08,-174.08)">
</g>
<g
   id="g64"
   transform="translate(-174.08,-174.08)">
</g>
<g
   id="g66"
   transform="translate(-174.08,-174.08)">
</g>
<g
   id="g68"
   transform="translate(-174.08,-174.08)">
</g>
<g
   id="g70"
   transform="translate(-174.08,-174.08)">
</g>
<g
   id="g72"
   transform="translate(-174.08,-174.08)">
</g>
<g
   id="g74"
   transform="translate(-174.08,-174.08)">
</g>
<g
   transform="matrix(6.1623275,0,0,5.7896112,-18.627234,-12.01949)"
   id="g4525"><rect
     transform="rotate(-43.222429)"
     y="5.975668"
     x="-0.36737117"
     height="33.008556"
     width="1.5631247"
     id="rect4506"
     style="opacity:1;fill:#ff0700;fill-opacity:1;stroke:#f6b0af;stroke-width:0;stroke-miterlimit:4;stroke-dasharray:none;stroke-opacity:1" /><rect
     transform="rotate(40.055)"
     y="-14.624537"
     x="22.056465"
     height="33.008556"
     width="1.5631247"
     id="rect4506-9"
     style="opacity:1;fill:#ff0700;fill-opacity:1;stroke:#f6b0af;stroke-width:0;stroke-miterlimit:4;stroke-dasharray:none;stroke-opacity:1" /></g></svg>