<?xml version="1.0" encoding="UTF-8" standalone="no"?>
<!-- Generator: Adobe Illustrator 19.0.0, SVG Export Plug-In . SVG Version: 6.00 Build 0)  -->

<svg
   xmlns:dc="http://purl.org/dc/elements/1.1/"
   xmlns:cc="http://creativecommons.org/ns#"
   xmlns:rdf="http://www.w3.org/1999/02/22-rdf-syntax-ns#"
   xmlns:svg="http://www.w3.org/2000/svg"
   xmlns="http://www.w3.org/2000/svg"
   xmlns:sodipodi="http://sodipodi.sourceforge.net/DTD/sodipodi-0.dtd"
   xmlns:inkscape="http://www.inkscape.org/namespaces/inkscape"
   version="1.1"
   id="Layer_1"
   x="0px"
   y="0px"
   viewBox="0 0 163.84 163.84"
   xml:space="preserve"
   sodipodi:docname="telephone.svg"
   width="163.84"
   height="163.84"
   inkscape:version="0.92.1 r15371"><metadata
   id="metadata75"><rdf:RDF><cc:Work
       rdf:about=""><dc:format>image/svg+xml</dc:format><dc:type
         rdf:resource="http://purl.org/dc/dcmitype/StillImage" /><dc:title></dc:title></cc:Work></rdf:RDF></metadata><defs
   id="defs73" /><sodipodi:namedview
   pagecolor="#ffffff"
   bordercolor="#666666"
   borderopacity="1"
   objecttolerance="10"
   gridtolerance="10"
   guidetolerance="10"
   inkscape:pageopacity="0"
   inkscape:pageshadow="2"
   inkscape:window-width="1536"
   inkscape:window-height="801"
   id="namedview71"
   showgrid="false"
   inkscape:zoom="0.4609375"
   inkscape:cx="-176.24949"
   inkscape:cy="81.919998"
   inkscape:window-x="-8"
   inkscape:window-y="-8"
   inkscape:window-maximized="1"
   inkscape:current-layer="Layer_1" />
<circle
   style="fill:#ffedb5;stroke-width:0.31999999"
   cx="81.919998"
   cy="81.919998"
   r="81.919998"
   id="circle2" />
<path
   style="fill:#ffc61b;stroke-width:0.31999999"
   d="M 111.552,32.556798 53.420798,132.8224 l 31.0816,30.9728 c 43.093762,-1.33504 77.799042,-35.94944 79.282562,-79.006082 z"
   id="path4"
   inkscape:connector-curvature="0" />
<path
   style="fill:#366695;stroke-width:0.31999999"
   d="m 66.688318,37.455358 v 0 c -2.90016,0 -5.2512,-2.35104 -5.2512,-5.2512 v -10.50176 c 0,-2.90016 2.35104,-5.2512 5.2512,-5.2512 v 0 c 2.90016,0 5.2512,2.35104 5.2512,5.2512 v 10.50176 c -6.4e-4,2.90016 -2.35104,5.2512 -5.2512,5.2512 z"
   id="path6"
   inkscape:connector-curvature="0" />
<path
   style="fill:#263a7a;stroke-width:0.31999999"
   d="m 59.156798,135.15424 h 46.569282 c 4.54048,0 8.22112,-3.68064 8.22112,-8.22112 V 38.356798 c 0,-4.54048 -3.68064,-8.22112 -8.22112,-8.22112 H 59.156798 c -4.54048,0 -8.22112,3.68064 -8.22112,8.22112 v 88.576322 c -3.2e-4,4.54048 3.68032,8.22112 8.22112,8.22112 z"
   id="path8"
   inkscape:connector-curvature="0" />
<path
   style="fill:#121149;stroke-width:0.31999999"
   d="M 105.72544,30.135678 H 82.839678 V 135.15424 h 22.885762 c 4.54048,0 8.22112,-3.68064 8.22112,-8.22112 V 38.356798 c 0,-4.5408 -3.68064,-8.22112 -8.22112,-8.22112 z"
   id="path10"
   inkscape:connector-curvature="0" />
<rect
   x="61.437119"
   y="40.639999"
   style="fill:#4a7ca5;stroke-width:0.31999999"
   width="42.007999"
   height="31.504641"
   id="rect12" />
<rect
   x="82.841263"
   y="40.639999"
   style="fill:#263a7a;stroke-width:0.31999999"
   width="20.60416"
   height="31.504641"
   id="rect14" />
<circle
   style="fill:#4a7ca5;stroke-width:0.31999999"
   cx="66.688965"
   cy="87.894394"
   r="5.2511997"
   id="circle16" />
<circle
   style="fill:#273b7a;stroke-width:0.31999999"
   cx="98.193588"
   cy="87.894394"
   r="5.2511997"
   id="circle18" />
<circle
   style="fill:#4a7ca5;stroke-width:0.31999999"
   cx="82.4384"
   cy="87.894394"
   r="5.2511997"
   id="circle20" />
<path
   style="fill:#273b7a;stroke-width:0.31999999"
   d="m 87.691838,87.895998 c 0,-2.76544 -2.1392,-5.02656 -4.85216,-5.23072 v 10.46144 c 2.71296,-0.20448 4.85216,-2.46528 4.85216,-5.23072 z"
   id="path22"
   inkscape:connector-curvature="0" />
<circle
   style="fill:#4a7ca5;stroke-width:0.31999999"
   cx="66.688965"
   cy="119.39903"
   r="5.2511997"
   id="circle24" />
<circle
   style="fill:#273b7a;stroke-width:0.31999999"
   cx="98.193588"
   cy="119.39903"
   r="5.2511997"
   id="circle26" />
<circle
   style="fill:#4a7ca5;stroke-width:0.31999999"
   cx="82.4384"
   cy="119.39903"
   r="5.2511997"
   id="circle28" />
<path
   style="fill:#273b7a;stroke-width:0.31999999"
   d="m 87.691838,119.40128 c 0,-2.76544 -2.1392,-5.02656 -4.85216,-5.23072 V 124.632 c 2.71296,-0.20416 4.85216,-2.46528 4.85216,-5.23072 z"
   id="path30"
   inkscape:connector-curvature="0" />
<circle
   style="fill:#4a7ca5;stroke-width:0.31999999"
   cx="66.688965"
   cy="103.64961"
   r="5.2511997"
   id="circle32" />
<circle
   style="fill:#273b7a;stroke-width:0.31999999"
   cx="98.193588"
   cy="103.64961"
   r="5.2511997"
   id="circle34" />
<circle
   style="fill:#4a7ca5;stroke-width:0.31999999"
   cx="82.4384"
   cy="103.64961"
   r="5.2511997"
   id="circle36" />
<path
   style="fill:#273b7a;stroke-width:0.31999999"
   d="m 87.691838,103.64832 c 0,-2.76544 -2.1392,-5.026562 -4.85216,-5.230722 v 10.461442 c 2.71296,-0.20416 4.85216,-2.46464 4.85216,-5.23072 z"
   id="path38"
   inkscape:connector-curvature="0" />
<g
   id="g40"
   transform="translate(-174.08,-174.08)">
</g>
<g
   id="g42"
   transform="translate(-174.08,-174.08)">
</g>
<g
   id="g44"
   transform="translate(-174.08,-174.08)">
</g>
<g
   id="g46"
   transform="translate(-174.08,-174.08)">
</g>
<g
   id="g48"
   transform="translate(-174.08,-174.08)">
</g>
<g
   id="g50"
   transform="translate(-174.08,-174.08)">
</g>
<g
   id="g52"
   transform="translate(-174.08,-174.08)">
</g>
<g
   id="g54"
   transform="translate(-174.08,-174.08)">
</g>
<g
   id="g56"
   transform="translate(-174.08,-174.08)">
</g>
<g
   id="g58"
   transform="translate(-174.08,-174.08)">
</g>
<g
   id="g60"
   transform="translate(-174.08,-174.08)">
</g>
<g
   id="g62"
   transform="translate(-174.08,-174.08)">
</g>
<g
   id="g64"
   transform="translate(-174.08,-174.08)">
</g>
<g
   id="g66"
   transform="translate(-174.08,-174.08)">
</g>
<g
   id="g68"
   transform="translate(-174.08,-174.08)">
</g>
</svg>